# Procedural shark model
mtllib shark_model.mtl
o Shark
v -3.350000 0.030000 0.000000
v -3.350000 0.028532 0.009271
v -3.350000 0.024271 0.017634
v -3.350000 0.017634 0.024271
v -3.350000 0.009271 0.028532
v -3.350000 0.000000 0.030000
v -3.350000 -0.009271 0.028532
v -3.350000 -0.017634 0.024271
v -3.350000 -0.024271 0.017634
v -3.350000 -0.028532 0.009271
v -3.350000 -0.030000 0.000000
v -3.350000 -0.028532 -0.007602
v -3.350000 -0.024271 -0.014460
v -3.350000 -0.017634 -0.019902
v -3.350000 -0.009271 -0.023396
v -3.350000 -0.000000 -0.024600
v -3.350000 0.009271 -0.023396
v -3.350000 0.017634 -0.019902
v -3.350000 0.024271 -0.014460
v -3.350000 0.028532 -0.007602
v -3.150000 0.480000 0.000000
v -3.150000 0.456507 0.117426
v -3.150000 0.388328 0.223358
v -3.150000 0.282137 0.307426
v -3.150000 0.148328 0.361401
v -3.150000 0.000000 0.380000
v -3.150000 -0.148328 0.361401
v -3.150000 -0.282137 0.307426
v -3.150000 -0.388328 0.223358
v -3.150000 -0.456507 0.117426
v -3.150000 -0.480000 0.000000
v -3.150000 -0.456507 -0.096290
v -3.150000 -0.388328 -0.183154
v -3.150000 -0.282137 -0.252090
v -3.150000 -0.148328 -0.296349
v -3.150000 -0.000000 -0.311600
v -3.150000 0.148328 -0.296349
v -3.150000 0.282137 -0.252090
v -3.150000 0.388328 -0.183154
v -3.150000 0.456507 -0.096290
v -2.650000 0.790000 0.000000
v -2.650000 0.751335 0.194681
v -2.650000 0.639123 0.370305
v -2.650000 0.464350 0.509681
v -2.650000 0.244123 0.599166
v -2.650000 0.000000 0.630000
v -2.650000 -0.244123 0.599166
v -2.650000 -0.464350 0.509681
v -2.650000 -0.639123 0.370305
v -2.650000 -0.751335 0.194681
v -2.650000 -0.790000 0.000000
v -2.650000 -0.751335 -0.159638
v -2.650000 -0.639123 -0.303650
v -2.650000 -0.464350 -0.417938
v -2.650000 -0.244123 -0.491316
v -2.650000 -0.000000 -0.516600
v -2.650000 0.244123 -0.491316
v -2.650000 0.464350 -0.417938
v -2.650000 0.639123 -0.303650
v -2.650000 0.751335 -0.159638
v -1.750000 0.970000 0.000000
v -1.750000 0.922525 0.241033
v -1.750000 0.784746 0.458472
v -1.750000 0.570152 0.631033
v -1.750000 0.299746 0.741824
v -1.750000 0.000000 0.780000
v -1.750000 -0.299746 0.741824
v -1.750000 -0.570152 0.631033
v -1.750000 -0.784746 0.458472
v -1.750000 -0.922525 0.241033
v -1.750000 -0.970000 0.000000
v -1.750000 -0.922525 -0.197647
v -1.750000 -0.784746 -0.375947
v -1.750000 -0.570152 -0.517447
v -1.750000 -0.299746 -0.608296
v -1.750000 -0.000000 -0.639600
v -1.750000 0.299746 -0.608296
v -1.750000 0.570152 -0.517447
v -1.750000 0.784746 -0.375947
v -1.750000 0.922525 -0.197647
v -0.650000 0.920000 0.000000
v -0.650000 0.874972 0.225582
v -0.650000 0.744296 0.429083
v -0.650000 0.540762 0.590582
v -0.650000 0.284296 0.694271
v -0.650000 0.000000 0.730000
v -0.650000 -0.284296 0.694271
v -0.650000 -0.540762 0.590582
v -0.650000 -0.744296 0.429083
v -0.650000 -0.874972 0.225582
v -0.650000 -0.920000 0.000000
v -0.650000 -0.874972 -0.184978
v -0.650000 -0.744296 -0.351848
v -0.650000 -0.540762 -0.484278
v -0.650000 -0.284296 -0.569302
v -0.650000 -0.000000 -0.598600
v -0.650000 0.284296 -0.569302
v -0.650000 0.540762 -0.484278
v -0.650000 0.744296 -0.351848
v -0.650000 0.874972 -0.184978
v 0.350000 0.730000 0.000000
v 0.350000 0.694271 0.176140
v 0.350000 0.590582 0.335038
v 0.350000 0.429083 0.461140
v 0.350000 0.225582 0.542102
v 0.350000 0.000000 0.570000
v 0.350000 -0.225582 0.542102
v 0.350000 -0.429083 0.461140
v 0.350000 -0.590582 0.335038
v 0.350000 -0.694271 0.176140
v 0.350000 -0.730000 0.000000
v 0.350000 -0.694271 -0.144435
v 0.350000 -0.590582 -0.274731
v 0.350000 -0.429083 -0.378135
v 0.350000 -0.225582 -0.444524
v 0.350000 -0.000000 -0.467400
v 0.350000 0.225582 -0.444524
v 0.350000 0.429083 -0.378135
v 0.350000 0.590582 -0.274731
v 0.350000 0.694271 -0.144435
v 1.250000 0.450000 0.000000
v 1.250000 0.427975 0.108156
v 1.250000 0.364058 0.205725
v 1.250000 0.264503 0.283156
v 1.250000 0.139058 0.332870
v 1.250000 0.000000 0.350000
v 1.250000 -0.139058 0.332870
v 1.250000 -0.264503 0.283156
v 1.250000 -0.364058 0.205725
v 1.250000 -0.427975 0.108156
v 1.250000 -0.450000 0.000000
v 1.250000 -0.427975 -0.088688
v 1.250000 -0.364058 -0.168694
v 1.250000 -0.264503 -0.232188
v 1.250000 -0.139058 -0.272953
v 1.250000 -0.000000 -0.287000
v 1.250000 0.139058 -0.272953
v 1.250000 0.264503 -0.232188
v 1.250000 0.364058 -0.168694
v 1.250000 0.427975 -0.088688
v 1.950000 0.180000 0.000000
v 1.950000 0.171190 0.046353
v 1.950000 0.145623 0.088168
v 1.950000 0.105801 0.121353
v 1.950000 0.055623 0.142658
v 1.950000 0.000000 0.150000
v 1.950000 -0.055623 0.142658
v 1.950000 -0.105801 0.121353
v 1.950000 -0.145623 0.088168
v 1.950000 -0.171190 0.046353
v 1.950000 -0.180000 0.000000
v 1.950000 -0.171190 -0.038009
v 1.950000 -0.145623 -0.072298
v 1.950000 -0.105801 -0.099509
v 1.950000 -0.055623 -0.116980
v 1.950000 -0.000000 -0.123000
v 1.950000 0.055623 -0.116980
v 1.950000 0.105801 -0.099509
v 1.950000 0.145623 -0.072298
v 1.950000 0.171190 -0.038009
v 2.280000 0.120000 0.000000
v 2.280000 0.114127 0.030902
v 2.280000 0.097082 0.058779
v 2.280000 0.070534 0.080902
v 2.280000 0.037082 0.095106
v 2.280000 0.000000 0.100000
v 2.280000 -0.037082 0.095106
v 2.280000 -0.070534 0.080902
v 2.280000 -0.097082 0.058779
v 2.280000 -0.114127 0.030902
v 2.280000 -0.120000 0.000000
v 2.280000 -0.114127 -0.025339
v 2.280000 -0.097082 -0.048198
v 2.280000 -0.070534 -0.066339
v 2.280000 -0.037082 -0.077987
v 2.280000 -0.000000 -0.082000
v 2.280000 0.037082 -0.077987
v 2.280000 0.070534 -0.066339
v 2.280000 0.097082 -0.048198
v 2.280000 0.114127 -0.025339
v -1.050000 -0.080000 0.540000
v -0.250000 -0.080000 1.850000
v 0.450000 -0.080000 0.500000
v -1.050000 0.080000 0.540000
v -0.250000 0.080000 1.850000
v 0.450000 0.080000 0.500000
v 0.720000 -0.050000 0.310000
v 1.180000 -0.050000 0.780000
v 1.480000 -0.050000 0.240000
v 0.720000 0.050000 0.310000
v 1.180000 0.050000 0.780000
v 1.480000 0.050000 0.240000
v 2.080000 -0.065000 0.080000
v 2.920000 -0.065000 1.300000
v 3.360000 -0.065000 1.630000
v 3.150000 -0.065000 0.250000
v 3.650000 -0.065000 0.000000
v 3.160000 -0.065000 -0.240000
v 3.200000 -0.065000 -1.230000
v 2.830000 -0.065000 -0.980000
v 2.080000 0.065000 0.080000
v 2.920000 0.065000 1.300000
v 3.360000 0.065000 1.630000
v 3.150000 0.065000 0.250000
v 3.650000 0.065000 0.000000
v 3.160000 0.065000 -0.240000
v 3.200000 0.065000 -1.230000
v 2.830000 0.065000 -0.980000
v -1.350000 -0.550000 0.000000
v -0.350000 -2.150000 -0.160000
v 0.280000 -0.800000 -0.180000
v -0.550000 -0.480000 0.040000
v -1.350000 -0.500000 -0.100000
v -0.350000 -2.100000 -0.230000
v 0.280000 -0.750000 -0.250000
v -0.550000 -0.430000 -0.070000
v -1.350000 0.550000 0.000000
v -0.350000 2.150000 -0.160000
v 0.280000 0.800000 -0.180000
v -0.550000 0.480000 0.040000
v -1.350000 0.500000 -0.100000
v -0.350000 2.100000 -0.230000
v 0.280000 0.750000 -0.250000
v -0.550000 0.430000 -0.070000
v -2.615000 -0.630000 0.280000
v -2.615000 -0.630000 0.280000
v -2.615000 -0.630000 0.280000
v -2.615000 -0.630000 0.280000
v -2.615000 -0.630000 0.280000
v -2.615000 -0.630000 0.280000
v -2.615000 -0.630000 0.280000
v -2.615000 -0.630000 0.280000
v -2.615000 -0.630000 0.280000
v -2.615000 -0.630000 0.280000
v -2.615000 -0.630000 0.280000
v -2.615000 -0.630000 0.280000
v -2.622993 -0.589818 0.280000
v -2.622993 -0.595202 0.300091
v -2.622993 -0.609909 0.314798
v -2.622993 -0.630000 0.320182
v -2.622993 -0.650091 0.314798
v -2.622993 -0.664798 0.300091
v -2.622993 -0.670182 0.280000
v -2.622993 -0.664798 0.259909
v -2.622993 -0.650091 0.245202
v -2.622993 -0.630000 0.239818
v -2.622993 -0.609909 0.245202
v -2.622993 -0.595202 0.259909
v -2.645754 -0.555754 0.280000
v -2.645754 -0.565701 0.317123
v -2.645754 -0.592877 0.344299
v -2.645754 -0.630000 0.354246
v -2.645754 -0.667123 0.344299
v -2.645754 -0.694299 0.317123
v -2.645754 -0.704246 0.280000
v -2.645754 -0.694299 0.242877
v -2.645754 -0.667123 0.215701
v -2.645754 -0.630000 0.205754
v -2.645754 -0.592877 0.215701
v -2.645754 -0.565701 0.242877
v -2.679818 -0.532993 0.280000
v -2.679818 -0.545989 0.328504
v -2.679818 -0.581496 0.364011
v -2.679818 -0.630000 0.377007
v -2.679818 -0.678504 0.364011
v -2.679818 -0.714011 0.328504
v -2.679818 -0.727007 0.280000
v -2.679818 -0.714011 0.231496
v -2.679818 -0.678504 0.195989
v -2.679818 -0.630000 0.182993
v -2.679818 -0.581496 0.195989
v -2.679818 -0.545989 0.231496
v -2.720000 -0.525000 0.280000
v -2.720000 -0.539067 0.332500
v -2.720000 -0.577500 0.370933
v -2.720000 -0.630000 0.385000
v -2.720000 -0.682500 0.370933
v -2.720000 -0.720933 0.332500
v -2.720000 -0.735000 0.280000
v -2.720000 -0.720933 0.227500
v -2.720000 -0.682500 0.189067
v -2.720000 -0.630000 0.175000
v -2.720000 -0.577500 0.189067
v -2.720000 -0.539067 0.227500
v -2.760182 -0.532993 0.280000
v -2.760182 -0.545989 0.328504
v -2.760182 -0.581496 0.364011
v -2.760182 -0.630000 0.377007
v -2.760182 -0.678504 0.364011
v -2.760182 -0.714011 0.328504
v -2.760182 -0.727007 0.280000
v -2.760182 -0.714011 0.231496
v -2.760182 -0.678504 0.195989
v -2.760182 -0.630000 0.182993
v -2.760182 -0.581496 0.195989
v -2.760182 -0.545989 0.231496
v -2.794246 -0.555754 0.280000
v -2.794246 -0.565701 0.317123
v -2.794246 -0.592877 0.344299
v -2.794246 -0.630000 0.354246
v -2.794246 -0.667123 0.344299
v -2.794246 -0.694299 0.317123
v -2.794246 -0.704246 0.280000
v -2.794246 -0.694299 0.242877
v -2.794246 -0.667123 0.215701
v -2.794246 -0.630000 0.205754
v -2.794246 -0.592877 0.215701
v -2.794246 -0.565701 0.242877
v -2.817007 -0.589818 0.280000
v -2.817007 -0.595202 0.300091
v -2.817007 -0.609909 0.314798
v -2.817007 -0.630000 0.320182
v -2.817007 -0.650091 0.314798
v -2.817007 -0.664798 0.300091
v -2.817007 -0.670182 0.280000
v -2.817007 -0.664798 0.259909
v -2.817007 -0.650091 0.245202
v -2.817007 -0.630000 0.239818
v -2.817007 -0.609909 0.245202
v -2.817007 -0.595202 0.259909
v -2.825000 -0.630000 0.280000
v -2.825000 -0.630000 0.280000
v -2.825000 -0.630000 0.280000
v -2.825000 -0.630000 0.280000
v -2.825000 -0.630000 0.280000
v -2.825000 -0.630000 0.280000
v -2.825000 -0.630000 0.280000
v -2.825000 -0.630000 0.280000
v -2.825000 -0.630000 0.280000
v -2.825000 -0.630000 0.280000
v -2.825000 -0.630000 0.280000
v -2.825000 -0.630000 0.280000
v -2.615000 0.630000 0.280000
v -2.615000 0.630000 0.280000
v -2.615000 0.630000 0.280000
v -2.615000 0.630000 0.280000
v -2.615000 0.630000 0.280000
v -2.615000 0.630000 0.280000
v -2.615000 0.630000 0.280000
v -2.615000 0.630000 0.280000
v -2.615000 0.630000 0.280000
v -2.615000 0.630000 0.280000
v -2.615000 0.630000 0.280000
v -2.615000 0.630000 0.280000
v -2.622993 0.670182 0.280000
v -2.622993 0.664798 0.300091
v -2.622993 0.650091 0.314798
v -2.622993 0.630000 0.320182
v -2.622993 0.609909 0.314798
v -2.622993 0.595202 0.300091
v -2.622993 0.589818 0.280000
v -2.622993 0.595202 0.259909
v -2.622993 0.609909 0.245202
v -2.622993 0.630000 0.239818
v -2.622993 0.650091 0.245202
v -2.622993 0.664798 0.259909
v -2.645754 0.704246 0.280000
v -2.645754 0.694299 0.317123
v -2.645754 0.667123 0.344299
v -2.645754 0.630000 0.354246
v -2.645754 0.592877 0.344299
v -2.645754 0.565701 0.317123
v -2.645754 0.555754 0.280000
v -2.645754 0.565701 0.242877
v -2.645754 0.592877 0.215701
v -2.645754 0.630000 0.205754
v -2.645754 0.667123 0.215701
v -2.645754 0.694299 0.242877
v -2.679818 0.727007 0.280000
v -2.679818 0.714011 0.328504
v -2.679818 0.678504 0.364011
v -2.679818 0.630000 0.377007
v -2.679818 0.581496 0.364011
v -2.679818 0.545989 0.328504
v -2.679818 0.532993 0.280000
v -2.679818 0.545989 0.231496
v -2.679818 0.581496 0.195989
v -2.679818 0.630000 0.182993
v -2.679818 0.678504 0.195989
v -2.679818 0.714011 0.231496
v -2.720000 0.735000 0.280000
v -2.720000 0.720933 0.332500
v -2.720000 0.682500 0.370933
v -2.720000 0.630000 0.385000
v -2.720000 0.577500 0.370933
v -2.720000 0.539067 0.332500
v -2.720000 0.525000 0.280000
v -2.720000 0.539067 0.227500
v -2.720000 0.577500 0.189067
v -2.720000 0.630000 0.175000
v -2.720000 0.682500 0.189067
v -2.720000 0.720933 0.227500
v -2.760182 0.727007 0.280000
v -2.760182 0.714011 0.328504
v -2.760182 0.678504 0.364011
v -2.760182 0.630000 0.377007
v -2.760182 0.581496 0.364011
v -2.760182 0.545989 0.328504
v -2.760182 0.532993 0.280000
v -2.760182 0.545989 0.231496
v -2.760182 0.581496 0.195989
v -2.760182 0.630000 0.182993
v -2.760182 0.678504 0.195989
v -2.760182 0.714011 0.231496
v -2.794246 0.704246 0.280000
v -2.794246 0.694299 0.317123
v -2.794246 0.667123 0.344299
v -2.794246 0.630000 0.354246
v -2.794246 0.592877 0.344299
v -2.794246 0.565701 0.317123
v -2.794246 0.555754 0.280000
v -2.794246 0.565701 0.242877
v -2.794246 0.592877 0.215701
v -2.794246 0.630000 0.205754
v -2.794246 0.667123 0.215701
v -2.794246 0.694299 0.242877
v -2.817007 0.670182 0.280000
v -2.817007 0.664798 0.300091
v -2.817007 0.650091 0.314798
v -2.817007 0.630000 0.320182
v -2.817007 0.609909 0.314798
v -2.817007 0.595202 0.300091
v -2.817007 0.589818 0.280000
v -2.817007 0.595202 0.259909
v -2.817007 0.609909 0.245202
v -2.817007 0.630000 0.239818
v -2.817007 0.650091 0.245202
v -2.817007 0.664798 0.259909
v -2.825000 0.630000 0.280000
v -2.825000 0.630000 0.280000
v -2.825000 0.630000 0.280000
v -2.825000 0.630000 0.280000
v -2.825000 0.630000 0.280000
v -2.825000 0.630000 0.280000
v -2.825000 0.630000 0.280000
v -2.825000 0.630000 0.280000
v -2.825000 0.630000 0.280000
v -2.825000 0.630000 0.280000
v -2.825000 0.630000 0.280000
v -2.825000 0.630000 0.280000
usemtl shark_blue
f 1 2 22 21
f 2 3 23 22
f 3 4 24 23
f 4 5 25 24
f 5 6 26 25
f 6 7 27 26
f 7 8 28 27
f 8 9 29 28
f 9 10 30 29
f 10 11 31 30
f 11 12 32 31
f 12 13 33 32
f 13 14 34 33
f 14 15 35 34
f 15 16 36 35
f 16 17 37 36
f 17 18 38 37
f 18 19 39 38
f 19 20 40 39
f 20 1 21 40
f 21 22 42 41
f 22 23 43 42
f 23 24 44 43
f 24 25 45 44
f 25 26 46 45
f 26 27 47 46
f 27 28 48 47
f 28 29 49 48
f 29 30 50 49
f 30 31 51 50
f 31 32 52 51
f 32 33 53 52
f 33 34 54 53
f 34 35 55 54
f 35 36 56 55
f 36 37 57 56
f 37 38 58 57
f 38 39 59 58
f 39 40 60 59
f 40 21 41 60
f 41 42 62 61
f 42 43 63 62
f 43 44 64 63
f 44 45 65 64
f 45 46 66 65
f 46 47 67 66
f 47 48 68 67
f 48 49 69 68
f 49 50 70 69
f 50 51 71 70
f 51 52 72 71
f 52 53 73 72
f 53 54 74 73
f 54 55 75 74
f 55 56 76 75
f 56 57 77 76
f 57 58 78 77
f 58 59 79 78
f 59 60 80 79
f 60 41 61 80
f 61 62 82 81
f 62 63 83 82
f 63 64 84 83
f 64 65 85 84
f 65 66 86 85
f 66 67 87 86
f 67 68 88 87
f 68 69 89 88
f 69 70 90 89
f 70 71 91 90
f 71 72 92 91
f 72 73 93 92
f 73 74 94 93
f 74 75 95 94
f 75 76 96 95
f 76 77 97 96
f 77 78 98 97
f 78 79 99 98
f 79 80 100 99
f 80 61 81 100
f 81 82 102 101
f 82 83 103 102
f 83 84 104 103
f 84 85 105 104
f 85 86 106 105
f 86 87 107 106
f 87 88 108 107
f 88 89 109 108
f 89 90 110 109
f 90 91 111 110
f 91 92 112 111
f 92 93 113 112
f 93 94 114 113
f 94 95 115 114
f 95 96 116 115
f 96 97 117 116
f 97 98 118 117
f 98 99 119 118
f 99 100 120 119
f 100 81 101 120
f 101 102 122 121
f 102 103 123 122
f 103 104 124 123
f 104 105 125 124
f 105 106 126 125
f 106 107 127 126
f 107 108 128 127
f 108 109 129 128
f 109 110 130 129
f 110 111 131 130
f 111 112 132 131
f 112 113 133 132
f 113 114 134 133
f 114 115 135 134
f 115 116 136 135
f 116 117 137 136
f 117 118 138 137
f 118 119 139 138
f 119 120 140 139
f 120 101 121 140
f 121 122 142 141
f 122 123 143 142
f 123 124 144 143
f 124 125 145 144
f 125 126 146 145
f 126 127 147 146
f 127 128 148 147
f 128 129 149 148
f 129 130 150 149
f 130 131 151 150
f 131 132 152 151
f 132 133 153 152
f 133 134 154 153
f 134 135 155 154
f 135 136 156 155
f 136 137 157 156
f 137 138 158 157
f 138 139 159 158
f 139 140 160 159
f 140 121 141 160
f 141 142 162 161
f 142 143 163 162
f 143 144 164 163
f 144 145 165 164
f 145 146 166 165
f 146 147 167 166
f 147 148 168 167
f 148 149 169 168
f 149 150 170 169
f 150 151 171 170
f 151 152 172 171
f 152 153 173 172
f 153 154 174 173
f 154 155 175 174
f 155 156 176 175
f 156 157 177 176
f 157 158 178 177
f 158 159 179 178
f 159 160 180 179
f 160 141 161 180
f 181 182 183
f 186 185 184
f 181 184 185 182
f 182 185 186 183
f 183 186 184 181
f 187 188 189
f 192 191 190
f 187 190 191 188
f 188 191 192 189
f 189 192 190 187
f 193 194 195 196 197 198 199 200
f 208 207 206 205 204 203 202 201
f 193 201 202 194
f 194 202 203 195
f 195 203 204 196
f 196 204 205 197
f 197 205 206 198
f 198 206 207 199
f 199 207 208 200
f 200 208 201 193
f 209 210 211 212
f 216 215 214 213
f 209 210 214 213
f 210 211 215 214
f 211 212 216 215
f 212 209 213 216
f 217 218 219 220
f 224 223 222 221
f 217 218 222 221
f 218 219 223 222
f 219 220 224 223
f 220 217 221 224
usemtl eye_black
f 225 226 238 237
f 226 227 239 238
f 227 228 240 239
f 228 229 241 240
f 229 230 242 241
f 230 231 243 242
f 231 232 244 243
f 232 233 245 244
f 233 234 246 245
f 234 235 247 246
f 235 236 248 247
f 236 225 237 248
f 237 238 250 249
f 238 239 251 250
f 239 240 252 251
f 240 241 253 252
f 241 242 254 253
f 242 243 255 254
f 243 244 256 255
f 244 245 257 256
f 245 246 258 257
f 246 247 259 258
f 247 248 260 259
f 248 237 249 260
f 249 250 262 261
f 250 251 263 262
f 251 252 264 263
f 252 253 265 264
f 253 254 266 265
f 254 255 267 266
f 255 256 268 267
f 256 257 269 268
f 257 258 270 269
f 258 259 271 270
f 259 260 272 271
f 260 249 261 272
f 261 262 274 273
f 262 263 275 274
f 263 264 276 275
f 264 265 277 276
f 265 266 278 277
f 266 267 279 278
f 267 268 280 279
f 268 269 281 280
f 269 270 282 281
f 270 271 283 282
f 271 272 284 283
f 272 261 273 284
f 273 274 286 285
f 274 275 287 286
f 275 276 288 287
f 276 277 289 288
f 277 278 290 289
f 278 279 291 290
f 279 280 292 291
f 280 281 293 292
f 281 282 294 293
f 282 283 295 294
f 283 284 296 295
f 284 273 285 296
f 285 286 298 297
f 286 287 299 298
f 287 288 300 299
f 288 289 301 300
f 289 290 302 301
f 290 291 303 302
f 291 292 304 303
f 292 293 305 304
f 293 294 306 305
f 294 295 307 306
f 295 296 308 307
f 296 285 297 308
f 297 298 310 309
f 298 299 311 310
f 299 300 312 311
f 300 301 313 312
f 301 302 314 313
f 302 303 315 314
f 303 304 316 315
f 304 305 317 316
f 305 306 318 317
f 306 307 319 318
f 307 308 320 319
f 308 297 309 320
f 309 310 322 321
f 310 311 323 322
f 311 312 324 323
f 312 313 325 324
f 313 314 326 325
f 314 315 327 326
f 315 316 328 327
f 316 317 329 328
f 317 318 330 329
f 318 319 331 330
f 319 320 332 331
f 320 309 321 332
f 333 334 346 345
f 334 335 347 346
f 335 336 348 347
f 336 337 349 348
f 337 338 350 349
f 338 339 351 350
f 339 340 352 351
f 340 341 353 352
f 341 342 354 353
f 342 343 355 354
f 343 344 356 355
f 344 333 345 356
f 345 346 358 357
f 346 347 359 358
f 347 348 360 359
f 348 349 361 360
f 349 350 362 361
f 350 351 363 362
f 351 352 364 363
f 352 353 365 364
f 353 354 366 365
f 354 355 367 366
f 355 356 368 367
f 356 345 357 368
f 357 358 370 369
f 358 359 371 370
f 359 360 372 371
f 360 361 373 372
f 361 362 374 373
f 362 363 375 374
f 363 364 376 375
f 364 365 377 376
f 365 366 378 377
f 366 367 379 378
f 367 368 380 379
f 368 357 369 380
f 369 370 382 381
f 370 371 383 382
f 371 372 384 383
f 372 373 385 384
f 373 374 386 385
f 374 375 387 386
f 375 376 388 387
f 376 377 389 388
f 377 378 390 389
f 378 379 391 390
f 379 380 392 391
f 380 369 381 392
f 381 382 394 393
f 382 383 395 394
f 383 384 396 395
f 384 385 397 396
f 385 386 398 397
f 386 387 399 398
f 387 388 400 399
f 388 389 401 400
f 389 390 402 401
f 390 391 403 402
f 391 392 404 403
f 392 381 393 404
f 393 394 406 405
f 394 395 407 406
f 395 396 408 407
f 396 397 409 408
f 397 398 410 409
f 398 399 411 410
f 399 400 412 411
f 400 401 413 412
f 401 402 414 413
f 402 403 415 414
f 403 404 416 415
f 404 393 405 416
f 405 406 418 417
f 406 407 419 418
f 407 408 420 419
f 408 409 421 420
f 409 410 422 421
f 410 411 423 422
f 411 412 424 423
f 412 413 425 424
f 413 414 426 425
f 414 415 427 426
f 415 416 428 427
f 416 405 417 428
f 417 418 430 429
f 418 419 431 430
f 419 420 432 431
f 420 421 433 432
f 421 422 434 433
f 422 423 435 434
f 423 424 436 435
f 424 425 437 436
f 425 426 438 437
f 426 427 439 438
f 427 428 440 439
f 428 417 429 440
